<svg width="32" height="32" viewBox="0 0 32 32" fill="none" xmlns="http://www.w3.org/2000/svg">
<mask id="mask0_1581_370" style="mask-type:luminance" maskUnits="userSpaceOnUse" x="0" y="0" width="32" height="32">
<path d="M32 0H0V32H32V0Z" fill="white"/>
</mask>
<g mask="url(#mask0_1581_370)">
<path d="M32 0H0V32H32V0Z" fill="#0266C1"/>
<mask id="mask1_1581_370" style="mask-type:luminance" maskUnits="userSpaceOnUse" x="1" y="1" width="96" height="30">
<path d="M96.4636 1.39111H1.39111V30.1447H96.4636V1.39111Z" fill="white"/>
</mask>
<g mask="url(#mask1_1581_370)">
<path d="M11.9241 20.0432L14.4469 17.3832L17.3166 20.0432H22.2361L14.4154 12.3481L6.65771 20.0432H11.9241Z" fill="white"/>
<path d="M19.1454 7.69284L15.4243 11.4929L17.884 14.0262L19.1454 12.7596L26.0516 19.663C24.4748 23.8747 20.4383 26.8831 15.6765 26.8831C9.55872 26.8831 4.6077 21.9113 4.6077 15.7679C4.63925 9.62453 9.59025 4.65279 15.7081 4.65279C21.1321 4.65279 25.6732 8.61119 26.5877 13.7729L29.9304 17.3196C29.9935 16.8129 30.025 16.2746 30.025 15.7679C30.025 11.9362 28.5429 8.32616 25.8309 5.60282C23.1188 2.87946 19.5238 1.39111 15.7081 1.39111C11.8608 1.39111 8.29732 2.87946 5.58529 5.60282C2.87327 8.32616 1.39111 11.9046 1.39111 15.7679C1.39111 19.6313 2.87327 23.2097 5.58529 25.933C8.29732 28.6564 11.8923 30.1447 15.7081 30.1447C19.5238 30.1447 23.1188 28.6564 25.8309 25.933C27.5022 24.2547 28.7006 22.2597 29.3628 20.0746C29.4889 19.6947 29.5835 19.283 29.6781 18.903L26.7769 15.8313L19.1454 7.69284Z" fill="white"/>
</g>
</g>
</svg>
