<svg xmlns="http://www.w3.org/2000/svg" xmlns:xlink="http://www.w3.org/1999/xlink"><symbol id="more-arrow" viewBox="0 0 9 14"><g fill="none">
<path d="M1 13L7 7L0.999999 1" stroke="#2D383F" stroke-width="2"/>
</g></symbol><symbol id="ok" viewBox="0 0 9 16"><g fill="none">
<path d="M4.5 2.42035C5.41587 2.42035 6.1607 3.18736 6.1607 4.1305C6.1607 5.0708 5.41587 5.83781 4.5 5.83781C3.58413 5.83781 2.8393 5.0708 2.8393 4.1305C2.8393 3.18736 3.58413 2.42035 4.5 2.42035ZM4.5 8.25816C6.71243 8.25816 8.51106 6.40597 8.51106 4.1305C8.51106 1.85219 6.71243 0 4.5 0C2.28757 0 0.491701 1.85219 0.491701 4.1305C0.491701 6.40597 2.28757 8.25816 4.5 8.25816ZM6.12208 11.6273C6.93863 11.4342 7.72485 11.1018 8.45037 10.6331C8.99934 10.278 9.16486 9.53083 8.82003 8.96551C8.47244 8.39735 7.74967 8.22691 7.19795 8.58485C5.55656 9.6473 3.44344 9.6473 1.79929 8.58485C1.25033 8.22691 0.524805 8.39735 0.179975 8.96551C-0.164855 9.53083 0.000663014 10.278 0.549632 10.6331C1.27515 11.1018 2.06136 11.4342 2.87792 11.6273L0.63515 13.934C0.177216 14.4056 0.177216 15.1726 0.63515 15.6442C0.866875 15.88 1.16481 15.9993 1.4655 15.9993C1.76619 15.9993 2.06688 15.88 2.29861 15.6442L4.5 13.3772L6.70415 15.6442C7.16208 16.1186 7.90416 16.1186 8.36485 15.6442C8.82278 15.1726 8.82278 14.4056 8.36485 13.934L6.12208 11.6273Z" fill="#2D383F"/>
</g></symbol><symbol id="player-heart" viewBox="0 0 17 17"><g fill="none">
<path d="M14.3232 4.70821C14.1007 4.19296 13.7799 3.72605 13.3786 3.33361C12.9771 2.93999 12.5036 2.62719 11.9841 2.41222C11.4453 2.18842 10.8675 2.07386 10.2841 2.07521C9.46562 2.07521 8.66709 2.29933 7.97314 2.72267C7.80713 2.82394 7.64941 2.93517 7.5 3.05636C7.35059 2.93517 7.19287 2.82394 7.02686 2.72267C6.33291 2.29933 5.53437 2.07521 4.71592 2.07521C4.12656 2.07521 3.55547 2.1881 3.01592 2.41222C2.49463 2.62804 2.0248 2.93849 1.62139 3.33361C1.21962 3.72561 0.898684 4.19263 0.676758 4.70821C0.445996 5.24445 0.328125 5.81388 0.328125 6.39991C0.328125 6.95275 0.441016 7.52882 0.665137 8.11486C0.852734 8.6046 1.12168 9.11261 1.46533 9.6256C2.00986 10.4374 2.75859 11.2841 3.68828 12.1424C5.22891 13.5651 6.75459 14.548 6.81934 14.5878L7.21279 14.8401C7.38711 14.9514 7.61123 14.9514 7.78555 14.8401L8.179 14.5878C8.24375 14.5463 9.76777 13.5651 11.3101 12.1424C12.2397 11.2841 12.9885 10.4374 13.533 9.6256C13.8767 9.11261 14.1473 8.6046 14.3332 8.11486C14.5573 7.52882 14.6702 6.95275 14.6702 6.39991C14.6719 5.81388 14.554 5.24445 14.3232 4.70821ZM7.5 13.527C7.5 13.527 1.58984 9.74015 1.58984 6.39991C1.58984 4.70821 2.98936 3.33693 4.71592 3.33693C5.92949 3.33693 6.98203 4.01427 7.5 5.00372C8.01797 4.01427 9.07051 3.33693 10.2841 3.33693C12.0106 3.33693 13.4102 4.70821 13.4102 6.39991C13.4102 9.74015 7.5 13.527 7.5 13.527Z" fill="#1C3374"/>
</g></symbol><symbol id="player-play" viewBox="0 0 47 47"><g fill="none">
<path d="M47 23.5C47 29.7326 44.5241 35.7099 40.117 40.117C35.7099 44.5241 29.7326 47 23.5 47C17.2674 47 11.2901 44.5241 6.88299 40.117C2.47589 35.7099 0 29.7326 0 23.5C0 17.2674 2.47589 11.2901 6.88299 6.88299C11.2901 2.47589 17.2674 0 23.5 0C29.7326 0 35.7099 2.47589 40.117 6.88299C44.5241 11.2901 47 17.2674 47 23.5ZM19.9456 14.9607C19.726 14.8043 19.4676 14.7114 19.1987 14.6922C18.9298 14.6729 18.6607 14.728 18.4211 14.8515C18.1814 14.975 17.9804 15.162 17.84 15.3922C17.6995 15.6223 17.6252 15.8867 17.625 16.1562V30.8438C17.6252 31.1133 17.6995 31.3777 17.84 31.6078C17.9804 31.838 18.1814 32.025 18.4211 32.1485C18.6607 32.272 18.9298 32.3271 19.1987 32.3078C19.4676 32.2886 19.726 32.1957 19.9456 32.0393L30.2269 24.6956C30.4173 24.5597 30.5725 24.3803 30.6795 24.1724C30.7866 23.9644 30.8425 23.7339 30.8425 23.5C30.8425 23.2661 30.7866 23.0356 30.6795 22.8276C30.5725 22.6197 30.4173 22.4403 30.2269 22.3044L19.9456 14.9607Z" fill="#1C3374"/>
</g></symbol><symbol id="player-prev" viewBox="0 0 22 22"><g fill="none">
<path d="M18.5625 19.25C18.4415 19.25 18.3227 19.218 18.2181 19.1572L5.15556 11.5947C5.05138 11.5343 4.9649 11.4475 4.90479 11.3431C4.84467 11.2388 4.81303 11.1204 4.81303 11C4.81303 10.8796 4.84467 10.7612 4.90479 10.6569C4.9649 10.5525 5.05138 10.4657 5.15556 10.4053L18.2181 2.84281C18.3225 2.78233 18.4411 2.75043 18.5618 2.75031C18.6826 2.75019 18.8012 2.78186 18.9058 2.84214C19.0104 2.90242 19.0973 2.98917 19.1577 3.09369C19.2181 3.1982 19.2499 3.31678 19.25 3.4375V18.5625C19.25 18.7448 19.1776 18.9197 19.0486 19.0486C18.9197 19.1776 18.7448 19.25 18.5625 19.25ZM1.375 2.75H2.75V19.25H1.375V2.75Z" fill="#1C3374"/>
</g></symbol><symbol id="player-repeat" viewBox="0 0 25 25"><g fill="none">
<path d="M20.1449 8.18493C20.9716 9.05095 21.5321 10.1362 21.7599 11.3116C21.9876 12.487 21.873 13.7031 21.4296 14.8152C20.9862 15.9273 20.2327 16.8887 19.2587 17.5849C18.2847 18.2812 17.1313 18.6831 15.9355 18.7427L15.6246 18.7506L10.4793 18.749L12.273 20.5443C12.4024 20.6736 12.4824 20.8442 12.4989 21.0263C12.5155 21.2085 12.4676 21.3907 12.3636 21.5412L12.273 21.649C12.1437 21.7784 11.9732 21.8584 11.791 21.8749C11.6088 21.8915 11.4266 21.8436 11.2761 21.7396L11.1683 21.649L8.04019 18.5209C7.91101 18.3914 7.83134 18.2207 7.81507 18.0386C7.79879 17.8564 7.84694 17.6743 7.95113 17.524L8.04019 17.4162L11.1683 14.2881C11.3061 14.1496 11.4908 14.0679 11.6859 14.0588C11.881 14.0498 12.0724 14.1142 12.2223 14.2393C12.3723 14.3644 12.47 14.5411 12.4962 14.7346C12.5223 14.9282 12.475 15.1245 12.3636 15.2849L12.273 15.3943L10.4793 17.1865H15.6246C16.82 17.1866 17.9702 16.73 18.8401 15.9101C19.71 15.0901 20.2337 13.9689 20.3043 12.7756L20.3121 12.5006C20.3139 11.2665 19.8275 10.0819 18.9589 9.20525C18.8164 9.06095 18.7355 8.86686 18.7334 8.66401C18.7314 8.46117 18.8083 8.26548 18.9479 8.11833C19.0876 7.97118 19.279 7.88412 19.4816 7.87555C19.6843 7.86699 19.8824 7.93759 20.0339 8.07243L20.1464 8.18493H20.1449ZM13.7246 3.26149L13.8339 3.35056L16.9605 6.47868L17.0511 6.58806C17.1412 6.71852 17.1894 6.87329 17.1894 7.03181C17.1894 7.19033 17.1412 7.34509 17.0511 7.47556L16.9605 7.58493L13.8339 10.7115L13.7246 10.8021C13.5941 10.8922 13.4393 10.9404 13.2808 10.9404C13.1223 10.9404 12.9675 10.8922 12.8371 10.8021L12.7277 10.7115L12.6386 10.6021C12.5486 10.4717 12.5004 10.3169 12.5004 10.1584C12.5004 9.99985 12.5486 9.84509 12.6386 9.71462L12.7277 9.60525L14.5214 7.81306H9.37456C8.17892 7.81299 7.02845 8.26982 6.15853 9.09006C5.28861 9.91031 4.76502 11.032 4.69488 12.2256L4.68706 12.5006C4.68706 13.7818 5.20113 14.9412 6.03238 15.7881C6.16401 15.9384 6.23305 16.1334 6.22531 16.333C6.21758 16.5327 6.13365 16.7218 5.99078 16.8614C5.84792 17.0011 5.65697 17.0807 5.4572 17.0839C5.25744 17.0871 5.06403 17.0137 4.91675 16.8787C4.07305 16.0192 3.49566 14.9342 3.25403 13.7543C3.0124 12.5744 3.11682 11.3499 3.55474 10.2279C3.99266 9.10596 4.74542 8.13444 5.72246 7.43021C6.6995 6.72598 7.85921 6.31905 9.06206 6.25837L9.37456 6.25056L14.5214 6.249L12.7277 4.45681L12.6386 4.34743C12.5357 4.19704 12.4886 4.01541 12.5055 3.83397C12.5223 3.65252 12.6021 3.48268 12.731 3.35382C12.8598 3.22497 13.0297 3.14521 13.2111 3.12835C13.3925 3.11149 13.5742 3.15859 13.7246 3.26149Z" fill="#1C3374"/>
</g></symbol><symbol id="player-share" viewBox="0 0 17 17"><g fill="none">
<path d="M8.50033 2.125V10.625M8.50033 2.125L5.66699 4.95833M8.50033 2.125L11.3337 4.95833M1.41699 12.0417L1.85687 13.8019C1.93348 14.1084 2.11033 14.3804 2.35931 14.5749C2.60829 14.7693 2.91512 14.875 3.23103 14.875H13.7696C14.0855 14.875 14.3924 14.7693 14.6413 14.5749C14.8903 14.3804 15.0672 14.1084 15.1438 13.8019L15.5837 12.0417" stroke="#1C3374" stroke-width="1.16667" stroke-linecap="round" stroke-linejoin="round"/>
</g></symbol><symbol id="player-shuffle" viewBox="0 0 25 25"><g fill="none">
<path d="M23.2129 17.4121C23.3596 17.5602 23.4419 17.7603 23.4419 17.9688C23.4419 18.1772 23.3596 18.3773 23.2129 18.5254L20.8691 20.8691C20.7198 21.0135 20.5202 21.0942 20.3125 21.0942C20.1048 21.0942 19.9052 21.0135 19.7559 20.8691C19.6092 20.721 19.5269 20.521 19.5269 20.3125C19.5269 20.104 19.6092 19.904 19.7559 19.7559L20.7715 18.75H19.6191C18.4996 18.748 17.3967 18.4795 16.4016 17.9667C15.4064 17.4538 14.5477 16.7114 13.8965 15.8008L9.82422 10.1074C9.31888 9.3997 8.65233 8.82244 7.87968 8.42338C7.10703 8.02432 6.25048 7.81492 5.38086 7.8125H3.125C2.9178 7.8125 2.71909 7.73019 2.57257 7.58368C2.42606 7.43717 2.34375 7.23845 2.34375 7.03125C2.34375 6.82405 2.42606 6.62534 2.57257 6.47882C2.71909 6.33231 2.9178 6.25 3.125 6.25H5.38086C6.50037 6.25197 7.60331 6.52049 8.59844 7.03333C9.59357 7.54618 10.4523 8.28862 11.1035 9.19922L15.1758 14.8926C15.6811 15.6003 16.3477 16.1776 17.1203 16.5766C17.893 16.9757 18.7495 17.1851 19.6191 17.1875H20.7715L19.7559 16.1816C19.6313 16.0298 19.5676 15.8371 19.5772 15.641C19.5869 15.4449 19.6691 15.2593 19.808 15.1205C19.9468 14.9816 20.1324 14.8994 20.3285 14.8897C20.5246 14.8801 20.7173 14.9438 20.8691 15.0684L23.2129 17.4121ZM13.9648 10.4492C14.0487 10.5093 14.1436 10.5521 14.2441 10.5753C14.3446 10.5985 14.4487 10.6015 14.5504 10.5843C14.6521 10.567 14.7493 10.5298 14.8365 10.4748C14.9238 10.4198 14.9992 10.348 15.0586 10.2637L15.1758 10.1074C15.6811 9.3997 16.3477 8.82244 17.1203 8.42338C17.893 8.02432 18.7495 7.81492 19.6191 7.8125H20.7715L19.7559 8.81836C19.6092 8.96648 19.5269 9.16653 19.5269 9.375C19.5269 9.58348 19.6092 9.78352 19.7559 9.93164C19.9052 10.076 20.1048 10.1567 20.3125 10.1567C20.5202 10.1567 20.7198 10.076 20.8691 9.93164L23.2129 7.58789C23.3596 7.43977 23.4419 7.23973 23.4419 7.03125C23.4419 6.82278 23.3596 6.62273 23.2129 6.47461L20.8691 4.13086C20.7173 4.00628 20.5246 3.94261 20.3285 3.95225C20.1324 3.96188 19.9468 4.04412 19.808 4.18298C19.6691 4.32183 19.5869 4.50737 19.5772 4.70351C19.5676 4.89964 19.6313 5.09235 19.7559 5.24414L20.7715 6.25H19.6191C18.4996 6.25197 17.3967 6.52049 16.4016 7.03333C15.4064 7.54618 14.5477 8.28862 13.8965 9.19922L13.7891 9.35547C13.7285 9.43873 13.685 9.53313 13.6611 9.63326C13.6372 9.73338 13.6332 9.83725 13.6496 9.93889C13.6659 10.0405 13.7022 10.1379 13.7563 10.2255C13.8104 10.3131 13.8813 10.3891 13.9648 10.4492ZM11.0352 14.5508C10.9513 14.4907 10.8564 14.4479 10.7559 14.4247C10.6554 14.4015 10.5513 14.3985 10.4496 14.4157C10.3479 14.433 10.2507 14.4702 10.1635 14.5252C10.0762 14.5802 10.0008 14.652 9.94141 14.7363L9.82422 14.8926C9.31888 15.6003 8.65233 16.1776 7.87968 16.5766C7.10703 16.9757 6.25048 17.1851 5.38086 17.1875H3.125C2.9178 17.1875 2.71909 17.2698 2.57257 17.4163C2.42606 17.5628 2.34375 17.7616 2.34375 17.9688C2.34375 18.176 2.42606 18.3747 2.57257 18.5212C2.71909 18.6677 2.9178 18.75 3.125 18.75H5.38086C6.50037 18.748 7.60331 18.4795 8.59844 17.9667C9.59357 17.4538 10.4523 16.7114 11.1035 15.8008L11.2109 15.6445C11.2715 15.5613 11.315 15.4669 11.3389 15.3667C11.3628 15.2666 11.3668 15.1628 11.3504 15.0611C11.3341 14.9595 11.2978 14.8621 11.2437 14.7745C11.1896 14.6869 11.1187 14.6109 11.0352 14.5508Z" fill="#1C3374"/>
</g></symbol><symbol id="reddit" viewBox="0 0 14 15"><g fill="none">
<path d="M8.36171 0C7.91277 0 7.49149 0.244007 7.22128 0.59589C6.95106 0.947774 6.80213 1.37671 6.69362 1.82877C6.52128 2.55565 6.46808 3.36216 6.45532 4.08904C5.19361 4.17894 4.05105 4.57962 3.10211 5.19863C2.717 4.85188 2.25317 4.65925 1.80849 4.66438C1.3021 4.66952 0.821252 4.90325 0.463803 5.38356C-0.219178 6.30051 -0.140455 7.80051 0.651038 8.69178C0.602102 8.96661 0.565931 9.24914 0.565931 9.53425C0.565931 12.5548 3.44679 15 7 15C10.5532 15 13.4341 12.5522 13.4341 9.53425C13.4341 9.24914 13.3979 8.96661 13.349 8.69178C14.1405 7.80051 14.2192 6.30051 13.5362 5.38356C13.1788 4.90325 12.6979 4.66952 12.1915 4.66438C11.7468 4.65925 11.283 4.85188 10.8979 5.19863C9.9532 4.58219 8.81703 4.18151 7.5617 4.08904C7.57873 3.41866 7.62341 2.7226 7.74894 2.19863C7.82766 1.86986 7.92128 1.63099 8.02128 1.5C8.12128 1.36901 8.19362 1.31507 8.36171 1.31507C8.72554 1.31507 8.77235 1.44092 8.9915 1.74658C9.10214 1.90068 9.2298 2.09332 9.43405 2.28082C9.63831 2.46832 9.94044 2.63014 10.2681 2.63014V1.31507C10.1766 1.31507 10.1596 1.3125 10.0979 1.25342C10.0362 1.19435 9.95108 1.05822 9.82554 0.883562C9.57448 0.531678 9.08724 0 8.36171 0ZM11.9021 0.123288C11.0553 0.123288 10.3702 0.950343 10.3702 1.9726C10.3702 2.99486 11.0553 3.82192 11.9021 3.82192C12.749 3.82192 13.4341 2.99486 13.4341 1.9726C13.4341 0.950343 12.749 0.123288 11.9021 0.123288ZM11.9021 0.780822C12.4468 0.780822 12.8894 1.31507 12.8894 1.9726C12.8894 2.63014 12.4468 3.16438 11.9021 3.16438C11.3575 3.16438 10.9149 2.63014 10.9149 1.9726C10.9149 1.31507 11.3575 0.780822 11.9021 0.780822ZM7 5.11644C10.0149 5.11644 12.566 7.14298 12.566 9.53425C12.566 11.9281 10.0149 13.9521 7 13.9521C3.98509 13.9521 1.43402 11.9281 1.43402 9.53425C1.43402 7.14298 3.98509 5.11644 7 5.11644ZM1.82551 5.71233C1.97658 5.7149 2.13402 5.75599 2.28509 5.83562C1.73828 6.33647 1.30423 6.91182 1.00849 7.56164C0.80423 7.05308 0.85955 6.41866 1.11061 6.08219C1.29359 5.83562 1.54679 5.70976 1.82551 5.71233ZM12.1745 5.71233C12.4532 5.70976 12.7064 5.83562 12.8894 6.08219C13.1405 6.41866 13.1958 7.05308 12.9915 7.56164C12.6958 6.91182 12.2617 6.33647 11.7149 5.83562C11.866 5.75599 12.0234 5.7149 12.1745 5.71233ZM4.82127 7.35616C4.27658 7.35616 3.83403 7.89041 3.83403 8.54795C3.83403 9.20548 4.27658 9.73973 4.82127 9.73973C5.36595 9.73973 5.80851 9.20548 5.80851 8.54795C5.80851 7.89041 5.36595 7.35616 4.82127 7.35616ZM9.17873 7.35616C8.63405 7.35616 8.19149 7.89041 8.19149 8.54795C8.19149 9.20548 8.63405 9.73973 9.17873 9.73973C9.72342 9.73973 10.166 9.20548 10.166 8.54795C10.166 7.89041 9.72342 7.35616 9.17873 7.35616ZM4.29361 11.4041C4.64042 12.2697 5.71276 13.1096 7 13.1096C8.28724 13.1096 9.37661 12.2697 9.72342 11.4041C9.09363 11.8947 8.10001 12.226 7 12.226C5.9 12.226 4.9234 11.8947 4.29361 11.4041Z" fill="#2D383F"/>
</g></symbol><symbol id="slider-arrow" viewBox="0 0 14 9"><g fill="none">
<path d="M0.646446 4.85355C0.451184 4.65829 0.451184 4.34171 0.646446 4.14645L3.82843 0.964466C4.02369 0.769204 4.34027 0.769204 4.53553 0.964466C4.7308 1.15973 4.7308 1.47631 4.53553 1.67157L1.70711 4.5L4.53553 7.32843C4.7308 7.52369 4.7308 7.84027 4.53553 8.03553C4.34027 8.2308 4.02369 8.2308 3.82843 8.03553L0.646446 4.85355ZM14 5H1V4H14V5Z" fill="white"/>
</g></symbol><symbol id="vk" viewBox="0 0 16 9"><g fill="none">
<path d="M15.8574 8.02743C15.8144 7.95645 15.5484 7.38659 14.2683 6.21531C12.9282 4.98883 13.1082 5.18799 14.7223 3.06728C15.7054 1.77572 16.0984 0.986988 15.9754 0.649804C15.8584 0.328395 15.1353 0.413184 15.1353 0.413184L12.7312 0.426986C12.7312 0.426986 12.5531 0.403324 12.4201 0.481212C12.2911 0.558114 12.2081 0.735579 12.2081 0.735579C12.2081 0.735579 11.8271 1.7353 11.3191 2.58516C10.248 4.37855 9.81894 4.4732 9.64393 4.36179C9.2369 4.10249 9.33891 3.31869 9.33891 2.76263C9.33891 1.02445 9.60593 0.299803 8.81787 0.112478C8.55585 0.0503654 8.36384 0.00895679 7.69479 0.00205536C6.83672 -0.00681791 6.10967 0.00501311 5.69864 0.203183C5.42462 0.335296 5.21361 0.630086 5.34262 0.646846C5.50163 0.667551 5.86165 0.74248 6.05267 0.998819C6.29969 1.3291 6.29069 2.07248 6.29069 2.07248C6.29069 2.07248 6.4327 4.11827 5.95966 4.37263C5.63464 4.54714 5.1896 4.19122 4.23453 2.56347C3.7455 1.73037 3.37547 0.808537 3.37547 0.808537C3.37547 0.808537 3.30447 0.636987 3.17746 0.545297C3.02345 0.433888 2.80743 0.398395 2.80743 0.398395L0.521262 0.412198C0.521262 0.412198 0.178236 0.422057 0.0522271 0.568959C-0.0597811 0.700086 0.0432264 0.970227 0.0432264 0.970227C0.0432264 0.970227 1.83336 5.09827 3.85951 7.17954C5.71864 9.0873 7.8288 8.96208 7.8288 8.96208H8.78487C8.78487 8.96208 9.07389 8.93054 9.2209 8.77377C9.35691 8.62983 9.35191 8.35969 9.35191 8.35969C9.35191 8.35969 9.33291 7.09475 9.92895 6.90842C10.516 6.72504 11.2701 8.13095 12.0691 8.67222C12.6732 9.08138 13.1322 8.99166 13.1322 8.99166L15.2693 8.96208C15.2693 8.96208 16.3874 8.89406 15.8574 8.02743Z" fill="#2D383F"/>
</g></symbol></svg>